<?xml version="1.0" standalone="no"?>
<!DOCTYPE svg PUBLIC "-//W3C//DTD SVG 20010904//EN"
 "http://www.w3.org/TR/2001/REC-SVG-20010904/DTD/svg10.dtd">
<svg version="1.0" xmlns="http://www.w3.org/2000/svg"
 width="640.000000pt" height="640.000000pt" viewBox="0 0 640.000000 640.000000"
 preserveAspectRatio="xMidYMid meet">
<metadata>
Created by potrace 1.14, written by Peter Selinger 2001-2017
</metadata>
<g transform="translate(0.000000,640.000000) scale(0.100000,-0.100000)"
fill="#000000" stroke="none">
<path d="M3790 6381 c-20 -10 -44 -36 -56 -60 -21 -38 -21 -41 -4 -41 9 0 23
7 30 15 7 8 18 15 24 15 7 0 29 16 49 35 20 19 43 35 50 35 6 0 19 5 27 10 29
19 -84 11 -120 -9z"/>
<path d="M3987 6393 c47 -6 56 -23 31 -61 -11 -18 -26 -32 -32 -32 -18 0 -43
-32 -43 -53 0 -10 6 -16 12 -13 16 6 35 -13 35 -33 -1 -26 -57 -84 -74 -78 -9
4 -16 13 -16 22 0 8 -5 15 -11 15 -8 0 -10 16 -5 50 4 28 3 50 -1 50 -4 -1
-18 -17 -30 -36 -25 -39 -30 -84 -10 -84 6 0 0 -11 -15 -24 -14 -13 -28 -32
-30 -42 -5 -29 -51 -40 -105 -26 -38 11 -48 10 -62 -2 -30 -27 -67 -36 -87
-21 -11 8 -31 11 -46 8 -17 -3 -28 -1 -28 6 0 6 -9 11 -20 11 -14 0 -20 7 -20
21 0 19 4 21 34 16 39 -6 53 11 36 44 -12 22 -40 26 -40 5 0 -7 -6 -18 -13
-24 -10 -8 -16 -6 -25 9 -7 10 -21 19 -31 19 -17 0 -19 -5 -14 -34 6 -40 -11
-56 -28 -25 -7 15 -8 28 -1 43 5 11 15 32 21 46 13 29 15 71 5 118 -6 29 -10
33 -31 29 -19 -3 -27 1 -33 19 -11 29 -30 32 -30 4 0 -11 5 -20 10 -20 12 0
13 -47 1 -54 -9 -6 -25 -91 -26 -136 0 -26 -12 -29 -47 -15 -14 5 -18 2 -18
-12 0 -23 39 -44 68 -36 15 4 22 -3 31 -28 14 -40 14 -39 -4 -39 -8 0 -17 -11
-21 -25 -3 -14 -12 -25 -19 -25 -19 0 -25 -36 -9 -57 7 -10 14 -32 14 -50 0
-20 9 -42 25 -59 18 -19 22 -31 15 -38 -17 -17 -11 -26 15 -26 14 0 29 -8 35
-21 15 -27 23 -17 24 29 1 30 5 37 21 38 11 1 31 5 43 9 20 7 23 13 18 39 -4
20 -1 39 7 50 12 16 14 17 27 1 10 -12 11 -24 4 -43 -7 -20 -5 -35 8 -62 10
-19 18 -47 18 -62 0 -37 32 -138 43 -138 6 0 15 -7 22 -16 11 -15 14 -15 37 0
25 16 25 16 20 -10 -4 -21 -1 -25 14 -22 12 2 21 14 24 33 3 20 11 30 23 31 9
0 32 1 50 2 40 2 94 48 98 82 1 14 -1 53 -5 88 -7 55 -11 65 -33 73 -33 12
-123 0 -130 -17 -6 -16 -33 -19 -33 -4 0 6 6 10 14 10 17 0 25 18 18 43 -7 27
-35 20 -56 -16 -11 -18 -21 -27 -23 -20 -3 9 -14 11 -30 7 -29 -8 -28 -16 -7
86 5 24 3 30 -10 30 -15 0 -24 29 -8 31 56 6 65 4 75 -21 5 -14 9 -29 8 -33
-1 -5 8 -6 19 -2 11 3 20 2 20 -3 0 -5 9 -12 20 -15 13 -3 20 0 20 9 0 8 5 14
10 14 6 0 10 -4 10 -10 0 -6 27 -9 65 -7 l65 3 12 -38 c8 -26 17 -38 30 -38
10 0 18 6 18 14 0 28 20 27 51 -4 18 -16 35 -30 39 -30 4 0 13 -13 20 -30 7
-16 19 -30 27 -30 8 0 17 -9 20 -20 3 -11 12 -20 19 -20 18 0 66 99 58 122 -3
12 0 18 10 18 10 0 16 -9 16 -23 0 -33 9 -38 36 -20 16 10 24 25 24 43 0 28
29 70 49 70 6 0 11 -6 11 -14 0 -8 7 -22 16 -30 14 -15 18 -15 45 1 16 10 29
21 29 25 0 4 6 5 13 2 13 -5 57 30 57 46 0 6 15 10 33 10 26 0 36 6 45 25 12
25 7 55 -9 55 -5 0 -9 7 -9 15 0 7 -6 18 -14 22 -8 4 -16 20 -18 35 -3 27 -3
28 -32 13 -16 -9 -36 -13 -43 -11 -18 7 -17 41 2 56 8 7 15 27 15 44 0 50 11
76 31 76 10 0 22 -7 26 -15 11 -20 38 -2 30 20 -4 9 -11 13 -17 10 -5 -3 -10
1 -10 9 0 9 -6 16 -13 16 -7 0 -23 7 -36 16 l-24 17 24 18 c24 18 22 19 -98
18 -84 -1 -123 -5 -123 -13 0 -6 -5 -4 -10 4 -8 13 -13 11 -32 -11 -13 -14
-31 -28 -41 -32 -10 -4 -15 -11 -12 -17 4 -6 -5 -10 -20 -10 -24 0 -26 3 -21
24 5 19 1 26 -14 31 -11 3 -20 11 -20 16 0 5 -21 8 -47 7 -36 -1 -40 -2 -16
-5z m358 -70 c54 -33 61 -65 18 -81 -16 -6 -35 -13 -43 -16 -8 -3 -25 -13 -37
-22 -21 -15 -23 -15 -23 0 0 9 -4 16 -10 16 -5 0 -10 5 -10 11 0 6 6 9 13 6 7
-3 19 4 25 14 7 10 19 19 27 19 20 0 19 12 -5 38 -21 23 -26 42 -10 42 5 0 30
-12 55 -27z m-160 -13 c3 -5 20 -10 36 -10 19 0 28 -4 23 -11 -3 -6 -16 -8
-29 -5 -14 4 -28 0 -35 -9 -7 -8 -16 -15 -21 -15 -12 0 -31 39 -24 50 8 13 42
13 50 0z m-165 -181 c0 -4 5 -20 10 -35 8 -21 14 -24 22 -16 20 20 23 14 24
-38 1 -54 -6 -60 -35 -31 -12 12 -27 17 -45 14 -19 -4 -26 -1 -26 11 0 9 6 16
14 16 7 0 16 9 19 20 4 14 0 20 -12 20 -28 0 -31 10 -15 42 12 24 18 27 30 17
8 -6 14 -15 14 -20z m485 -99 c-3 -5 -10 -10 -16 -10 -5 0 -9 5 -9 10 0 6 7
10 16 10 8 0 12 -4 9 -10z m-1015 -104 c0 -27 -15 -42 -25 -26 -8 13 3 50 16
50 5 0 9 -11 9 -24z m424 -31 c3 -8 1 -15 -4 -15 -6 0 -10 7 -10 15 0 8 2 15
4 15 2 0 6 -7 10 -15z m172 -90 c-7 -18 -26 -20 -26 -2 0 18 24 41 28 27 2 -6
1 -17 -2 -25z m-461 -35 c3 -5 1 -10 -4 -10 -6 0 -11 5 -11 10 0 6 2 10 4 10
3 0 8 -4 11 -10z"/>
<path d="M4500 6390 c0 -5 -9 -10 -20 -10 -24 0 -26 -15 -3 -24 9 -4 20 -1 25
6 9 14 11 38 3 38 -3 0 -5 -4 -5 -10z"/>
<path d="M4853 6361 c3 -22 14 -52 26 -67 11 -15 26 -44 31 -65 6 -22 17 -39
24 -39 17 0 27 58 10 64 -6 2 -14 21 -18 40 -4 20 -11 36 -16 36 -5 0 -10 15
-12 33 -2 25 -8 33 -27 35 -23 4 -24 1 -18 -37z"/>
<path d="M3180 6351 c0 -6 5 -13 10 -16 6 -3 10 1 10 9 0 9 -4 16 -10 16 -5 0
-10 -4 -10 -9z"/>
<path d="M4821 6344 c0 -11 3 -14 6 -6 3 7 2 16 -1 19 -3 4 -6 -2 -5 -13z"/>
<path d="M3141 6335 c-1 -6 -14 -16 -31 -22 -33 -12 -39 -37 -16 -68 13 -18
15 -18 30 -2 23 23 31 21 44 -8 15 -32 16 -85 1 -85 -5 0 -7 -5 -4 -10 5 -8
11 -7 21 1 10 8 17 9 28 0 32 -27 44 58 13 97 -7 9 -7 16 1 24 21 21 14 41
-12 34 -32 -8 -56 2 -66 28 -5 12 -9 16 -9 11z"/>
<path d="M3875 6321 c-3 -5 -1 -12 5 -16 12 -7 30 2 30 16 0 12 -27 12 -35 0z"/>
<path d="M4770 6282 c-17 -20 -36 -43 -41 -50 -6 -7 -30 -50 -54 -96 -77 -147
-100 -180 -137 -200 -31 -16 -37 -25 -43 -62 -3 -25 -9 -42 -13 -40 -4 2 -8
-7 -9 -21 0 -14 -17 -58 -37 -97 -19 -39 -36 -84 -38 -101 -2 -25 -8 -30 -28
-30 -25 0 -27 -3 -29 -57 0 -15 -13 -40 -27 -55 -15 -15 -33 -44 -41 -63 -31
-75 -79 -167 -112 -215 -19 -27 -50 -79 -69 -115 -144 -273 -162 -312 -162
-343 0 -32 2 -34 35 -35 23 -1 33 3 29 11 -2 7 15 19 45 30 31 11 52 25 56 37
8 24 18 25 51 4 21 -14 24 -14 18 -1 -3 8 -1 18 5 22 6 3 11 23 11 43 l1 37
22 -37 c12 -21 27 -36 34 -33 7 2 10 -2 7 -10 -3 -8 -9 -14 -12 -13 -25 5 -40
-16 -36 -48 3 -22 0 -34 -8 -34 -6 0 -3 -7 8 -15 21 -16 62 -19 82 -7 9 7 8
13 -8 27 -20 18 -20 18 6 41 14 13 29 24 35 24 5 0 9 7 9 16 0 8 7 23 16 32
11 11 15 27 11 54 -6 44 8 59 29 32 13 -18 14 -18 33 5 20 26 41 21 41 -10 0
-22 16 -25 34 -6 11 11 10 17 -4 35 -10 12 -28 22 -39 22 -15 0 -21 6 -21 21
0 16 5 20 28 17 22 -2 27 1 27 19 0 31 13 39 29 18 13 -18 14 -18 20 3 4 12 5
31 1 42 -4 11 0 29 9 41 8 12 13 26 10 33 -2 6 10 19 27 28 23 13 29 23 24 37
-8 25 11 37 32 19 14 -11 15 -9 11 18 -3 27 -1 30 18 26 31 -6 37 10 39 112 1
75 4 91 17 94 9 2 18 -5 21 -15 3 -10 5 -5 6 13 1 25 -3 30 -20 30 -12 -1 -24
5 -26 12 -3 7 3 12 14 12 26 0 76 49 69 67 -17 43 -17 63 -2 79 21 21 31 12
17 -15 -6 -11 -7 -22 -2 -25 12 -8 53 73 46 91 -3 8 -11 13 -19 10 -12 -5 -36
30 -36 53 0 18 35 15 47 -5 12 -20 12 -20 13 2 0 12 -5 25 -10 28 -6 4 -7 11
-4 17 4 7 2 8 -4 4 -6 -4 -21 -2 -32 4 -17 9 -20 20 -18 77 l2 66 26 -31 c15
-18 31 -32 37 -32 6 0 9 -8 6 -19 -3 -10 0 -22 5 -25 14 -8 25 29 18 58 -3 15
3 31 20 51 13 16 27 39 30 51 6 23 -23 84 -39 84 -4 0 -7 15 -5 33 3 28 0 32
-19 31 -27 -1 -28 2 -7 24 15 14 15 17 0 27 -9 7 -16 24 -16 38 0 40 -26 40
-60 -1z m37 -174 c-3 -8 -6 -5 -6 6 -1 11 2 17 5 13 3 -3 4 -12 1 -19z m53
-63 c0 -30 -4 -55 -9 -55 -12 0 -26 84 -16 99 15 25 25 7 25 -44z m-46 16 c3
-5 -1 -14 -9 -21 -13 -10 -15 -9 -15 9 0 21 14 28 24 12z m-180 -707 c3 -8 2
-12 -3 -9 -5 3 -12 1 -16 -5 -8 -13 -25 -3 -25 16 0 19 36 18 44 -2z m-97 -36
c-3 -8 -6 -5 -6 6 -1 11 2 17 5 13 3 -3 4 -12 1 -19z m50 -30 c6 17 23 15 23
-2 0 -8 6 -17 13 -20 6 -2 -3 -4 -22 -3 -31 2 -35 -1 -45 -37 -14 -49 -36 -60
-36 -17 0 16 5 33 10 36 6 4 10 14 9 23 -3 30 1 32 22 20 17 -10 23 -10 26 0z
m-202 -224 c14 -9 25 -23 25 -31 0 -16 -103 -123 -119 -123 -16 0 -13 36 3 49
23 20 56 89 50 106 -8 20 10 19 41 -1z m-135 -125 c0 -6 -4 -7 -10 -4 -5 3
-10 11 -10 16 0 6 5 7 10 4 6 -3 10 -11 10 -16z m30 -89 c0 -5 -4 -10 -10 -10
-5 0 -10 5 -10 10 0 6 5 10 10 10 6 0 10 -4 10 -10z"/>
<path d="M3742 6227 c-7 -8 -8 -18 -1 -27 8 -13 11 -12 24 4 22 29 0 51 -23
23z"/>
<path d="M3406 6204 c-9 -22 3 -32 14 -14 12 19 12 30 1 30 -5 0 -12 -7 -15
-16z"/>
<path d="M4490 6180 c0 -5 5 -10 10 -10 6 0 10 5 10 10 0 6 -4 10 -10 10 -5 0
-10 -4 -10 -10z"/>
<path d="M4950 6114 c0 -8 5 -12 10 -9 6 3 10 10 10 16 0 5 -4 9 -10 9 -5 0
-10 -7 -10 -16z"/>
<path d="M4281 5774 c-12 -15 -22 -38 -22 -53 -6 -106 -21 -190 -35 -202 -8
-6 -14 -26 -14 -44 0 -20 -6 -35 -15 -39 -8 -3 -15 -13 -15 -22 0 -12 15 -2
46 30 39 41 45 53 40 77 -3 15 -1 31 4 34 5 3 7 19 3 36 -5 25 -2 31 16 36 28
7 37 45 33 136 -2 44 -13 47 -41 11z"/>
<path d="M3960 5760 c0 -19 3 -21 12 -12 9 9 9 15 0 24 -9 9 -12 7 -12 -12z"/>
<path d="M4996 5724 c-8 -37 5 -64 30 -64 17 0 19 26 3 36 -6 3 -9 19 -7 35 7
43 -18 36 -26 -7z"/>
<path d="M3983 5726 c-24 -11 -30 -30 -13 -41 10 -6 60 22 60 35 0 14 -24 16
-47 6z"/>
<path d="M5090 5721 c0 -25 6 -27 13 -6 4 8 2 17 -3 20 -6 4 -10 -3 -10 -14z"/>
<path d="M4074 5658 c7 -22 -37 -36 -58 -19 -20 16 -30 -3 -16 -29 12 -23 -1
-56 -31 -78 -13 -9 -17 -21 -13 -40 4 -21 -3 -38 -30 -74 -20 -26 -36 -49 -36
-52 0 -12 36 -5 56 12 20 16 26 31 41 105 3 15 11 27 18 27 14 0 35 42 35 71
0 11 11 24 25 31 27 12 31 25 14 48 -9 13 -10 12 -5 -2z"/>
<path d="M6360 5640 c0 -5 7 -10 15 -10 8 0 15 5 15 10 0 6 -7 10 -15 10 -8 0
-15 -4 -15 -10z"/>
<path d="M4960 5630 c0 -5 5 -10 10 -10 6 0 10 5 10 10 0 6 -4 10 -10 10 -5 0
-10 -4 -10 -10z"/>
<path d="M5105 5630 c-3 -5 -1 -10 4 -10 6 0 11 5 11 10 0 6 -2 10 -4 10 -3 0
-8 -4 -11 -10z"/>
<path d="M6313 5605 c-8 -21 -1 -26 46 -32 45 -6 52 3 21 30 -25 21 -59 22
-67 2z"/>
<path d="M4872 5570 c-11 -44 -2 -52 21 -19 14 20 12 59 -3 59 -4 0 -12 -18
-18 -40z"/>
<path d="M3920 5512 c0 -7 -9 -12 -20 -12 -11 0 -20 -2 -20 -4 0 -12 13 -36
19 -36 10 0 33 51 26 58 -3 3 -5 0 -5 -6z"/>
<path d="M4773 5505 c-15 -16 -17 -39 -4 -31 5 4 11 0 14 -6 2 -7 6 2 9 20 5
35 0 39 -19 17z"/>
<path d="M4916 5492 c-2 -4 -1 -14 5 -22 7 -12 9 -10 9 8 0 23 -5 28 -14 14z"/>
<path d="M3900 5440 c-13 -8 -12 -10 3 -10 9 0 17 5 17 10 0 12 -1 12 -20 0z"/>
<path d="M929 5374 c-10 -13 -10 -17 2 -25 20 -13 34 -6 37 19 4 26 -19 30
-39 6z"/>
<path d="M1140 5376 c0 -9 7 -16 16 -16 9 0 14 5 12 12 -6 18 -28 21 -28 4z"/>
<path d="M985 5350 c3 -5 13 -10 21 -10 8 0 14 5 14 10 0 6 -9 10 -21 10 -11
0 -17 -4 -14 -10z"/>
<path d="M4728 5327 c-23 -29 -25 -35 -12 -52 9 -12 12 -31 8 -51 -5 -28 -3
-32 13 -28 16 4 18 16 18 85 0 43 0 79 0 78 0 0 -12 -15 -27 -32z"/>
<path d="M4810 5328 c0 -18 -3 -43 -6 -55 -7 -27 20 -33 30 -7 13 34 3 94 -15
94 -5 0 -9 -15 -9 -32z"/>
<path d="M1000 5295 c0 -26 32 -50 56 -41 20 8 17 44 -5 56 -33 17 -51 12 -51
-15z"/>
<path d="M4127 5306 c-4 -10 -5 -21 -2 -24 9 -9 17 6 13 25 -3 17 -4 17 -11
-1z"/>
<path d="M826 5220 c-4 -24 -11 -38 -16 -35 -6 4 -15 -7 -21 -23 -7 -22 -18
-31 -42 -36 -18 -4 -27 -10 -21 -14 6 -4 14 -15 17 -25 9 -23 30 -17 37 10 3
12 22 40 43 64 27 29 37 49 35 67 -5 41 -25 36 -32 -8z"/>
<path d="M1310 5231 c0 -5 18 -28 39 -52 32 -35 39 -39 34 -21 -3 13 -14 29
-24 35 -11 7 -19 17 -19 23 0 7 -7 14 -15 18 -8 3 -15 2 -15 -3z"/>
<path d="M905 5191 c-4 -25 -3 -47 3 -53 13 -13 26 57 14 79 -8 13 -11 7 -17
-26z"/>
<path d="M1077 5223 c-4 -3 0 -14 9 -24 9 -10 14 -25 11 -33 -9 -23 28 -26 42
-3 11 17 11 19 -3 14 -11 -4 -16 -1 -16 11 0 28 -28 51 -43 35z"/>
<path d="M4622 5213 c-32 -13 -69 -135 -46 -154 19 -16 36 -1 34 29 -4 53 -1
64 16 58 8 -3 12 -2 9 4 -3 5 5 21 18 34 14 14 22 27 19 30 -6 7 -32 6 -50 -1z"/>
<path d="M720 5180 c0 -5 5 -10 10 -10 6 0 10 5 10 10 0 6 -4 10 -10 10 -5 0
-10 -4 -10 -10z"/>
<path d="M4650 5150 c0 -5 5 -10 10 -10 6 0 10 5 10 10 0 6 -4 10 -10 10 -5 0
-10 -4 -10 -10z"/>
<path d="M1140 5114 c0 -9 9 -27 19 -41 11 -13 17 -31 14 -38 -6 -17 33 -70
41 -56 4 5 2 12 -4 16 -19 12 -11 43 13 47 21 3 21 4 -9 33 -62 59 -74 65 -74
39z"/>
<path d="M4773 5123 c-7 -2 -13 -18 -13 -34 0 -18 4 -28 10 -24 6 3 10 17 10
30 0 13 6 26 13 28 6 3 8 5 2 5 -5 0 -16 -2 -22 -5z"/>
<path d="M992 5106 c1 -10 8 -17 13 -17 15 1 12 24 -3 29 -9 3 -13 -2 -10 -12z"/>
<path d="M4690 5090 c0 -20 5 -30 15 -30 16 0 19 17 9 44 -10 26 -24 18 -24
-14z"/>
<path d="M3750 5090 c0 -5 5 -10 11 -10 5 0 7 5 4 10 -3 6 -8 10 -11 10 -2 0
-4 -4 -4 -10z"/>
<path d="M1044 5056 c-9 -23 4 -109 20 -141 12 -23 15 -24 27 -9 12 15 14 14
20 -3 3 -10 3 -28 -2 -40 -5 -13 -4 -25 1 -28 15 -9 12 -46 -5 -79 -8 -15 -15
-35 -15 -44 0 -8 -7 -20 -15 -26 -31 -23 18 -170 80 -245 15 -17 31 -29 36
-25 5 3 9 -2 9 -10 0 -21 36 -21 44 0 4 9 13 14 21 10 13 -4 15 5 15 52 0 31
0 81 0 109 1 53 -12 93 -30 93 -6 0 -10 -9 -10 -20 0 -11 -4 -20 -10 -20 -13
0 -13 16 1 38 9 14 6 35 -10 90 -12 39 -28 75 -35 79 -8 4 -21 24 -30 43 -9
19 -23 46 -30 60 -8 14 -22 44 -32 68 -21 52 -41 71 -50 48z m113 -288 c-3
-29 -12 -66 -21 -83 -9 -16 -16 -36 -16 -42 0 -7 -5 -13 -11 -13 -7 0 -9 11
-6 28 7 37 36 143 43 153 12 21 16 6 11 -43z m83 -339 c0 -5 -7 -9 -15 -9 -15
0 -20 12 -9 23 8 8 24 -1 24 -14z"/>
<path d="M1422 5063 c2 -5 19 -39 38 -78 26 -52 35 -65 38 -48 3 23 -54 133
-70 133 -5 0 -8 -3 -6 -7z"/>
<path d="M795 5029 c-9 -27 8 -45 24 -26 12 15 5 47 -9 47 -5 0 -12 -9 -15
-21z"/>
<path d="M1265 4949 c-4 -6 0 -18 9 -27 15 -15 16 -15 16 5 0 25 -15 38 -25
22z"/>
<path d="M1491 4900 c0 -26 24 -106 32 -108 8 -2 8 1 0 50 -6 40 -32 87 -32
58z"/>
<path d="M1033 4798 c-6 -22 -7 -38 -2 -38 13 0 21 24 17 52 -2 19 -5 17 -15
-14z"/>
<path d="M4555 4784 c-15 -8 -38 -14 -51 -14 -13 0 -24 -5 -24 -11 0 -7 -11
-8 -29 -4 -19 4 -41 0 -61 -10 -17 -9 -35 -13 -40 -10 -6 3 -10 1 -10 -4 0 -6
5 -11 10 -11 6 0 10 -9 10 -20 0 -24 25 -27 34 -4 3 8 10 13 15 9 5 -3 13 0
16 5 5 8 13 6 25 -5 21 -19 42 -12 55 18 6 13 17 21 29 19 12 -2 16 1 10 9 -4
8 -3 10 4 5 7 -4 9 -18 6 -32 -5 -19 -2 -24 12 -24 25 0 104 33 104 43 0 13
-27 37 -33 30 -4 -3 -17 1 -30 10 -21 14 -28 14 -52 1z"/>
<path d="M1277 4783 c-13 -12 -7 -33 8 -33 8 0 15 9 15 20 0 20 -11 26 -23 13z"/>
<path d="M4144 4705 c-10 -8 -14 -14 -9 -15 15 0 40 18 34 24 -3 3 -14 -1 -25
-9z"/>
<path d="M1530 4681 c0 -11 5 -23 10 -26 6 -3 10 3 10 14 0 11 -4 23 -10 26
-5 3 -10 -3 -10 -14z"/>
<path d="M4726 4604 c-22 -21 -20 -27 4 -14 11 6 20 15 20 20 0 14 -6 12 -24
-6z"/>
<path d="M1298 4494 c-9 -9 7 -57 20 -62 13 -4 15 11 6 46 -6 22 -15 27 -26
16z"/>
<path d="M1326 4388 c8 -28 12 -33 20 -25 9 8 -6 47 -17 47 -6 0 -7 -10 -3
-22z"/>
<path d="M1500 4403 c-8 -2 -28 -21 -43 -43 -25 -35 -31 -39 -60 -33 -18 3
-40 10 -49 15 -14 7 -18 4 -18 -12 0 -35 86 -54 120 -27 25 20 80 87 80 97 0
10 -4 11 -30 3z"/>
<path d="M1245 4370 c-3 -5 -1 -10 4 -10 6 0 11 5 11 10 0 6 -2 10 -4 10 -3 0
-8 -4 -11 -10z"/>
<path d="M1290 4345 c0 -14 4 -25 9 -25 12 0 23 29 15 41 -10 18 -24 9 -24
-16z"/>
<path d="M3780 4252 c8 -5 26 -13 40 -16 17 -5 20 -4 10 2 -8 5 -26 13 -40 16
-17 5 -20 4 -10 -2z"/>
<path d="M0 4123 c0 -75 0 -76 20 -58 11 10 20 29 20 42 0 25 -25 93 -34 93
-4 0 -6 -34 -6 -77z"/>
<path d="M3795 4186 c19 -12 75 -27 75 -20 0 7 -60 34 -77 34 -16 0 -16 -1 2
-14z"/>
<path d="M3930 4196 c0 -2 26 -16 58 -32 31 -15 59 -30 62 -34 3 -3 21 -16 40
-28 20 -11 47 -31 60 -42 14 -12 36 -31 50 -42 14 -11 41 -35 60 -52 19 -17
11 -6 -18 25 -29 30 -49 59 -45 64 5 4 3 5 -4 1 -7 -4 -39 14 -75 40 -74 54
-188 115 -188 100z"/>
<path d="M2953 4168 c-24 -31 -26 -41 -8 -30 10 5 20 17 21 26 3 19 0 20 -13
4z"/>
<path d="M3498 4173 c-10 -2 -18 -9 -18 -15 0 -6 -9 -8 -20 -5 -11 3 -23 1
-26 -4 -3 -5 -11 -6 -17 -2 -6 4 -32 7 -57 8 -64 2 -109 -28 -57 -38 l22 -4
-22 -8 c-13 -4 -23 -15 -23 -25 0 -13 -6 -16 -25 -12 -26 5 -32 21 -14 39 18
18 -10 27 -30 9 -10 -9 -22 -16 -27 -16 -25 0 -84 -22 -84 -31 0 -6 -7 -17
-15 -26 -14 -14 -18 -14 -35 2 -19 17 -20 17 -29 -6 -5 -13 -5 -28 -1 -32 13
-14 -23 -43 -47 -39 -14 3 -25 -3 -33 -17 -6 -12 -15 -19 -19 -16 -5 2 -17 -7
-27 -22 -11 -14 -27 -33 -36 -41 -9 -9 -14 -20 -11 -25 3 -5 -4 -6 -17 -2 -15
5 -20 4 -16 -4 4 -6 14 -11 22 -11 8 0 14 -4 14 -10 0 -5 -7 -10 -15 -10 -8 0
-15 -8 -16 -17 -1 -12 -4 -10 -9 7 -7 22 -8 21 -9 -13 -1 -23 -5 -36 -11 -32
-5 3 -18 1 -27 -5 -14 -8 -14 -10 -3 -9 36 3 45 -2 22 -14 -21 -12 -19 -15 58
-56 64 -34 84 -50 100 -81 26 -50 27 -131 3 -153 -17 -14 -22 -14 -68 5 -98
40 -96 38 -78 65 33 50 -17 185 -74 199 -30 8 -40 -1 -23 -21 7 -9 9 -15 4
-14 -25 4 -34 -3 -34 -28 0 -24 -31 -120 -47 -146 -3 -4 -11 -1 -17 9 -12 16
-13 16 -20 -1 -4 -10 -2 -21 4 -25 13 -8 -29 -100 -46 -100 -7 0 -9 -19 -8
-51 4 -56 10 -71 23 -51 6 10 11 9 21 -3 12 -14 12 -18 0 -25 -7 -4 -19 -6
-27 -3 -17 7 -18 -53 0 -60 6 -3 -4 -3 -23 0 -32 6 -34 5 -21 -10 11 -14 11
-17 0 -17 -11 -1 -11 -3 1 -13 9 -7 14 -20 12 -29 -4 -20 14 -25 21 -5 2 6 2
1 0 -13 -2 -14 -11 -38 -19 -54 -18 -37 -18 -36 5 -36 10 0 24 -7 31 -15 12
-14 7 -20 -14 -16 -5 1 -6 -5 -2 -14 3 -9 6 -25 6 -35 0 -13 5 -17 19 -13 11
3 21 -2 25 -13 5 -13 4 -14 -7 -6 -10 8 -16 6 -25 -9 -12 -18 -11 -21 7 -26
26 -7 27 -20 4 -27 -15 -4 -15 -5 2 -4 46 1 49 -1 30 -22 -10 -11 -15 -23 -11
-27 4 -4 11 -1 16 7 7 12 12 12 22 2 10 -10 10 -14 0 -21 -7 -4 -12 -14 -10
-22 2 -8 -2 -13 -9 -12 -6 1 -14 -4 -17 -12 -3 -9 0 -12 9 -9 8 3 19 -4 26
-18 7 -12 18 -29 26 -37 8 -7 12 -20 9 -27 -3 -8 -1 -14 4 -14 6 0 10 5 10 11
0 5 4 8 9 5 5 -4 8 -22 7 -40 -2 -19 1 -40 5 -48 6 -9 9 -7 9 10 0 15 6 22 19
22 27 0 36 -19 18 -37 -12 -12 -13 -21 -5 -39 11 -24 28 -33 28 -15 0 5 7 11
15 15 11 4 15 -1 15 -19 0 -19 -4 -23 -17 -18 -16 6 -16 5 -4 -10 10 -13 17
-15 27 -6 14 11 15 10 18 -13 1 -7 9 -12 19 -12 12 1 17 -4 15 -15 -5 -22 50
-62 76 -56 12 3 15 2 8 -1 -23 -11 8 -34 45 -34 19 0 32 -4 28 -9 -7 -12 32
-34 45 -26 6 3 11 -1 11 -9 3 -30 4 -34 13 -43 5 -5 6 -2 1 6 -6 10 -1 12 26
6 19 -4 47 -14 62 -22 16 -8 31 -12 34 -9 3 3 13 1 23 -4 33 -18 181 -40 270
-40 76 0 220 23 305 50 71 22 155 58 137 59 -18 1 -4 21 14 21 8 0 12 -4 9
-10 -9 -15 2 -12 31 6 18 12 22 20 14 29 -7 9 -7 15 -1 19 5 4 14 -1 19 -10 9
-16 15 -13 61 20 28 21 49 41 46 46 -3 4 3 7 12 6 10 0 18 6 18 14 0 8 9 15
20 15 10 0 25 10 31 23 6 13 15 23 20 23 5 -1 9 5 9 12 0 6 12 26 28 42 15 17
37 50 49 75 11 25 28 60 37 79 9 19 23 43 31 52 8 10 21 24 27 33 7 8 14 35
15 60 1 35 7 50 25 63 12 10 23 27 23 38 0 12 7 30 15 41 8 10 15 30 15 43 l0
23 -20 -23 c-23 -28 -26 -19 -6 19 18 36 27 100 15 108 -5 3 -9 27 -8 52 3 74
1 85 -16 78 -30 -11 -28 24 4 53 17 16 31 33 31 38 0 4 -6 1 -13 -7 -7 -8 -18
-16 -25 -17 -19 -4 -14 21 8 35 23 14 27 34 5 26 -8 -4 -15 -1 -15 5 0 6 -4
11 -10 11 -5 0 -10 -9 -10 -20 0 -25 -8 -25 -27 -2 -13 15 -14 15 -9 0 3 -11
-4 -20 -25 -28 -29 -12 -39 -42 -19 -55 15 -9 1 -27 -16 -21 -7 3 -16 1 -19
-5 -4 -5 -11 -7 -16 -3 -5 3 -7 10 -4 15 7 10 -20 40 -50 57 -11 6 -14 12 -7
12 9 0 13 11 11 34 -2 19 1 39 5 43 5 5 6 2 1 -6 -5 -9 -4 -12 3 -7 7 4 12 14
12 22 0 8 -4 13 -8 10 -4 -2 -14 -1 -22 5 -10 6 -11 9 -2 9 6 0 12 9 12 20 0
31 20 24 26 -9 5 -25 12 -31 45 -36 22 -4 37 -10 35 -13 -2 -4 7 -7 19 -7 15
0 28 8 34 23 9 18 8 22 -5 22 -8 0 -12 -4 -9 -10 3 -5 1 -10 -4 -10 -17 0 -6
41 14 56 18 13 18 14 -2 14 -11 0 -23 -7 -27 -15 -7 -20 -26 -19 -26 1 0 13
-3 14 -15 4 -20 -17 -46 -6 -38 16 5 13 3 15 -8 9 -12 -8 -12 -6 0 8 7 9 22
17 32 17 11 0 19 7 20 18 0 14 2 14 9 -3 7 -15 9 -16 9 -4 1 9 -6 22 -14 29
-8 7 -15 16 -15 21 0 13 -38 49 -52 49 -9 0 -9 3 -1 11 9 9 7 18 -6 38 -9 14
-22 35 -27 46 -6 11 -23 21 -38 23 -14 2 -26 10 -26 17 0 23 -23 65 -34 64
-26 -3 -35 2 -30 16 4 8 1 15 -6 15 -7 0 -10 8 -7 20 6 22 -8 37 -18 20 -12
-20 -27 -10 -21 14 4 15 1 28 -6 32 -8 5 -9 2 -4 -12 6 -16 4 -16 -17 4 -13
12 -31 22 -40 22 -9 0 -17 5 -17 10 0 6 -9 10 -20 10 -21 0 -29 20 -7 20 7 1
5 6 -6 14 -10 8 -18 18 -18 23 1 4 -5 8 -12 9 -6 0 -27 8 -45 18 -19 9 -43 18
-55 19 -12 2 -32 8 -44 15 -14 8 -24 9 -28 2 -10 -17 -48 -12 -41 5 6 17 -19
21 -29 5 -4 -7 -12 -7 -25 0 -15 8 -22 5 -38 -17 -16 -22 -22 -25 -35 -15 -8
7 -22 9 -32 6 -13 -5 -16 -3 -13 7 4 12 -19 40 -32 38 -3 -1 -13 -3 -22 -6z
m-238 -257 c0 -19 -5 -24 -23 -22 -27 1 -26 32 2 39 9 3 17 5 19 6 1 0 2 -10
2 -23z m-80 -24 l0 -27 -14 25 c-13 26 -11 44 5 35 5 -4 9 -18 9 -33z m-60
-22 c-8 -5 -17 -7 -19 -4 -3 3 1 9 9 14 8 5 17 7 19 4 3 -3 -1 -9 -9 -14z
m123 -40 c3 -13 -1 -21 -13 -25 -10 -3 -24 -20 -30 -38 l-12 -32 -9 24 c-7 18
-6 27 3 33 9 5 7 8 -7 9 -17 1 -17 2 -2 6 9 2 14 9 11 15 -4 6 0 14 7 19 23
15 46 10 52 -11z m10 -65 c-3 -9 -8 -14 -10 -11 -3 3 -2 9 2 15 9 16 15 13 8
-4z m428 -23 c-6 -2 -9 -8 -6 -12 6 -10 -27 -7 -65 6 -24 8 -23 8 15 20 29 8
44 8 54 1 9 -8 10 -12 2 -15z m-501 -22 c0 -5 -5 -10 -11 -10 -5 0 -7 5 -4 10
3 6 8 10 11 10 2 0 4 -4 4 -10z m1155 -90 c3 -5 -1 -10 -9 -10 -9 0 -16 5 -16
10 0 6 4 10 9 10 6 0 13 -4 16 -10z m-1282 -43 c18 -12 41 -27 52 -33 27 -14
65 -72 65 -97 0 -23 -49 -92 -58 -82 -4 4 -8 29 -9 56 -2 60 -31 111 -84 146
-22 14 -39 27 -39 29 0 12 46 1 73 -19z m948 -54 c49 -19 71 -60 58 -106 -5
-16 -6 -34 -3 -38 5 -9 -31 -139 -48 -172 -21 -41 -50 -94 -69 -122 -10 -16
-24 -41 -31 -55 -7 -14 -20 -30 -28 -37 -12 -9 -16 -8 -22 8 -6 15 -13 19 -28
14 -11 -4 -20 -2 -20 4 0 6 -9 11 -20 11 -16 0 -20 -7 -20 -32 0 -25 -12 -46
-48 -87 -64 -73 -121 -132 -155 -158 -24 -19 -26 -24 -16 -47 9 -20 9 -32 -5
-60 -18 -38 -21 -70 -6 -61 5 3 12 21 16 40 8 45 18 51 32 20 10 -21 9 -25 -4
-25 -11 0 -14 -5 -10 -16 4 -9 3 -26 0 -38 -7 -21 -7 -21 -15 -1 -7 18 -8 17
-8 -6 -1 -23 -31 -65 -31 -43 0 4 -6 0 -12 -9 -7 -9 -28 -18 -45 -19 -18 -1
-33 -6 -33 -11 0 -4 -4 -5 -10 -2 -16 10 -12 19 19 51 20 20 32 45 36 74 4 25
9 49 12 55 2 5 -2 2 -10 -7 -25 -31 -47 -22 -47 17 0 24 5 35 15 35 8 0 15 7
15 16 0 12 -7 15 -27 11 -15 -3 -38 -1 -51 4 l-23 9 19 25 c68 87 172 202 172
191 0 -4 12 1 28 12 55 40 153 81 183 77 16 -2 27 0 24 5 -3 5 -1 11 5 15 14
9 12 25 -3 20 -8 -4 -18 13 -29 47 -10 29 -26 78 -37 108 -23 61 -28 169 -10
202 19 34 68 78 89 78 11 0 20 5 20 10 0 17 135 12 181 -7z m-1311 -3 c0 -5
-2 -10 -4 -10 -3 0 -8 5 -11 10 -3 6 -1 10 4 10 6 0 11 -4 11 -10z m60 -30 c0
-5 -4 -10 -10 -10 -5 0 -10 5 -10 10 0 6 5 10 10 10 6 0 10 -4 10 -10z m1486
-75 c-9 -7 -16 -17 -16 -24 0 -6 -4 -11 -10 -11 -15 0 -12 9 13 39 12 16 24
23 26 18 2 -6 -4 -16 -13 -22z m84 -175 c0 -5 -7 -10 -16 -10 -8 0 -12 5 -9
10 3 6 10 10 16 10 5 0 9 -4 9 -10z m-1510 -132 c0 -17 7 -39 16 -49 12 -13
12 -19 3 -25 -8 -4 -10 -3 -5 4 4 7 1 12 -7 12 -19 0 -30 -29 -14 -36 14 -5
17 -47 5 -59 -4 -4 -5 -19 -2 -34 7 -37 -7 -54 -36 -43 -15 6 -19 11 -12 16
18 11 14 23 -8 29 -10 3 -24 -1 -31 -9 -13 -16 -29 -18 -29 -4 0 6 7 10 15 10
8 0 15 5 15 11 0 6 -6 9 -14 6 -9 -4 -16 3 -20 16 -6 21 -7 21 -20 5 -21 -28
-36 0 -17 31 7 11 15 10 41 -9 32 -23 32 -23 21 -2 -13 25 -9 28 11 8 12 -12
14 -6 14 35 0 31 6 55 17 67 9 10 17 25 18 33 0 8 4 6 9 -6 8 -18 9 -17 9 8 1
39 21 24 21 -15z m-243 -60 c-3 -8 -6 -5 -6 6 -1 11 2 17 5 13 3 -3 4 -12 1
-19z m1473 -1 c0 -7 -9 -18 -20 -25 -23 -14 -27 0 -7 23 15 18 27 19 27 2z
m58 2 c-2 -6 -8 -10 -13 -10 -5 0 -11 4 -13 10 -2 6 4 11 13 11 9 0 15 -5 13
-11z m-638 -23 c0 -2 -7 -7 -16 -10 -8 -3 -12 -2 -9 4 6 10 25 14 25 6z m804
-5 c3 -4 -6 -6 -19 -3 -14 2 -25 6 -25 8 0 8 39 4 44 -5z m-850 -18 c-5 -5
-12 -12 -16 -18 -4 -6 -8 -2 -8 8 0 9 7 17 17 17 9 0 12 -3 7 -7z m-70 -55
c-19 -17 -33 -37 -30 -44 3 -8 0 -11 -10 -7 -10 4 -12 0 -8 -11 4 -11 2 -16
-6 -14 -14 3 -53 -59 -45 -72 3 -5 -6 -17 -20 -28 -14 -11 -24 -24 -23 -29 2
-4 -4 -23 -11 -41 -10 -24 -11 -36 -3 -41 7 -4 8 -12 2 -21 -5 -8 -7 -26 -3
-40 4 -20 3 -23 -7 -13 -7 7 -14 27 -14 45 -1 18 -5 38 -9 45 -4 6 0 18 8 26
8 9 15 25 15 37 0 12 10 30 23 40 19 16 20 21 9 40 -11 18 -10 26 8 56 23 36
44 47 33 17 -3 -10 20 8 51 40 32 31 61 55 66 52 5 -3 -6 -20 -26 -37z m853 0
c1 -12 -5 -18 -19 -18 -16 0 -18 3 -9 14 9 11 9 15 -1 19 -7 3 -4 5 8 4 12 -1
21 -8 21 -19z m283 18 c0 -3 -4 -8 -10 -11 -5 -3 -10 -1 -10 4 0 6 5 11 10 11
6 0 10 -2 10 -4z m-330 -26 c0 -5 -5 -10 -11 -10 -5 0 -7 5 -4 10 3 6 8 10 11
10 2 0 4 -4 4 -10z m-1470 -20 c0 -11 -4 -20 -9 -20 -5 0 -7 9 -4 20 3 11 7
20 9 20 2 0 4 -9 4 -20z m1415 -10 c-3 -5 0 -10 7 -11 7 0 23 -2 35 -3 12 -1
24 3 27 11 9 23 27 14 22 -11 -2 -14 1 -27 7 -30 7 -2 2 -5 -10 -5 -13 -1 -23
5 -23 12 0 8 -4 7 -10 -3 -6 -10 -10 -11 -10 -2 0 6 -5 12 -11 12 -6 0 -9 -7
-5 -15 3 -8 1 -15 -4 -15 -6 0 -10 -5 -10 -10 0 -6 10 -5 23 3 14 9 31 11 47
7 14 -5 21 -8 16 -9 -4 -1 2 -9 14 -19 29 -23 36 -81 9 -79 -14 1 -16 8 -12
34 5 29 3 33 -17 33 -16 0 -20 4 -16 15 4 11 -1 15 -17 15 -17 0 -19 -2 -8 -9
12 -8 12 -13 -3 -35 -20 -32 -14 -46 22 -47 l27 0 -25 -10 c-19 -8 -27 -6 -37
7 -7 10 -13 23 -13 28 0 17 -72 13 -78 -3 -3 -8 0 -11 7 -7 12 8 14 -3 3 -20
-5 -9 -10 -9 -17 0 -20 22 -14 46 14 52 14 3 35 9 46 14 16 8 15 9 -8 5 -22
-3 -27 -1 -23 11 6 15 -2 18 -43 16 -22 -1 -23 0 -6 18 16 18 16 18 -2 16 -10
-2 -12 -1 -5 1 6 3 12 9 12 14 0 6 5 7 10 4 6 -3 13 1 16 9 3 9 17 16 31 16
13 0 21 -4 18 -10z m122 -12 c-3 -8 -6 -5 -6 6 -1 11 2 17 5 13 3 -3 4 -12 1
-19z m-1315 -12 c7 4 8 2 4 -4 -11 -18 -26 -14 -25 6 0 10 3 12 6 4 2 -6 10
-9 15 -6z m1425 -68 c-3 -8 -6 -5 -6 6 -1 11 2 17 5 13 3 -3 4 -12 1 -19z
m-127 -191 c0 -1 -12 -3 -28 -3 -15 -1 -21 1 -14 3 6 3 9 9 6 15 -4 6 2 5 15
-1 11 -7 21 -13 21 -14z m-775 -27 c2 -16 -1 -27 -6 -24 -5 3 -9 -9 -9 -25 0
-17 -5 -31 -11 -31 -8 0 -10 16 -6 50 9 76 27 93 32 30z m22 0 c-1 -12 -5 -16
-10 -11 -5 5 -6 14 -3 20 11 16 15 13 13 -9z m553 11 c0 -6 -4 -13 -10 -16 -5
-3 -10 1 -10 9 0 9 5 16 10 16 6 0 10 -4 10 -9z m-394 -28 c-10 -10 -19 5 -10
18 6 11 8 11 12 0 2 -7 1 -15 -2 -18z m-366 -37 c0 -2 -6 -9 -14 -15 -11 -9
-16 -9 -22 0 -4 7 -3 9 4 5 6 -3 13 -2 17 4 6 10 15 14 15 6z m134 -51 c-4 -8
-8 -15 -10 -15 -2 0 -4 7 -4 15 0 8 4 15 10 15 5 0 7 -7 4 -15z m561 -5 c-3
-5 -11 -10 -16 -10 -6 0 -7 5 -4 10 3 6 11 10 16 10 6 0 7 -4 4 -10z m-15 -54
c0 -3 -4 -8 -10 -11 -5 -3 -10 -1 -10 4 0 6 5 11 10 11 6 0 10 -2 10 -4z
m-864 -43 c-10 -10 -19 5 -10 18 6 11 8 11 12 0 2 -7 1 -15 -2 -18z m80 -80
c-3 -4 -6 -1 -6 6 0 7 -4 9 -10 6 -6 -3 -10 4 -10 17 l0 22 16 -22 c9 -13 13
-26 10 -29z m525 24 c-10 -9 -11 -8 -5 6 3 10 9 15 12 12 3 -3 0 -11 -7 -18z
m-415 -12 c-8 -8 -17 -15 -20 -15 -3 0 -6 7 -6 15 0 9 9 15 21 15 18 0 19 -2
5 -15z"/>
<path d="M3680 2925 c-7 -9 -8 -15 -2 -15 5 0 12 7 16 15 3 8 4 15 2 15 -2 0
-9 -7 -16 -15z"/>
<path d="M3632 2883 c-12 -2 -20 -9 -17 -14 9 -14 32 -11 39 6 3 8 4 14 3 14
-1 -1 -12 -4 -25 -6z"/>
<path d="M3575 2851 c-3 -6 3 -15 14 -20 14 -8 22 -7 32 6 12 15 11 16 -9 11
-12 -4 -20 -2 -16 3 3 5 1 9 -5 9 -5 0 -12 -4 -16 -9z"/>
<path d="M3545 2820 c3 -5 1 -10 -4 -10 -6 0 -11 -5 -11 -11 0 -6 7 -8 16 -5
8 3 12 2 9 -4 -10 -15 11 -12 24 4 10 12 8 17 -8 25 -25 14 -34 14 -26 1z"/>
<path d="M3521 2723 c0 -5 4 -17 9 -28 8 -17 8 -16 7 8 -1 15 -5 27 -9 27 -4
0 -8 -3 -7 -7z"/>
<path d="M2756 3084 c-10 -26 -7 -34 13 -34 20 0 35 25 25 41 -9 14 -31 10
-38 -7z"/>
<path d="M2770 2996 c0 -22 17 -28 24 -10 9 22 8 24 -9 24 -8 0 -15 -6 -15
-14z"/>
<path d="M2740 2950 c0 -5 5 -10 10 -10 6 0 10 5 10 10 0 6 -4 10 -10 10 -5 0
-10 -4 -10 -10z"/>
<path d="M4063 2903 c-7 -3 -13 -13 -13 -24 0 -21 16 -24 40 -9 13 8 13 11 0
23 -8 8 -21 13 -27 10z"/>
<path d="M4120 2819 c0 -5 5 -7 10 -4 6 3 10 8 10 11 0 2 -4 4 -10 4 -5 0 -10
-5 -10 -11z"/>
<path d="M3578 4163 c7 -3 16 -2 19 1 4 3 -2 6 -13 5 -11 0 -14 -3 -6 -6z"/>
<path d="M457 4135 c-21 -8 -51 -12 -68 -8 -22 4 -29 2 -29 -10 0 -26 -30 -40
-79 -39 -33 0 -54 -5 -67 -17 -55 -50 -132 -91 -173 -91 l-41 0 0 -309 0 -310
31 4 c17 3 38 10 46 17 13 10 35 14 105 17 11 1 15 6 12 16 -4 9 6 22 30 36
20 11 36 24 36 27 0 4 17 18 38 30 20 13 51 41 67 61 17 21 52 53 80 72 27 19
66 51 87 71 20 20 50 43 65 51 30 16 55 79 63 157 1 11 4 9 10 -5 9 -19 9 -19
16 3 4 16 9 20 14 12 5 -8 10 -2 14 15 5 19 10 24 19 17 9 -8 12 -4 13 14 2
19 -3 24 -21 24 -40 0 -55 11 -55 39 0 18 -14 40 -48 72 -39 39 -53 46 -87 47
-22 0 -57 -6 -78 -13z"/>
<path d="M2875 4119 c-84 -63 -111 -86 -168 -139 -57 -53 -107 -123 -74 -103
8 4 36 33 62 63 27 30 74 75 104 100 31 25 58 48 59 53 2 4 10 7 17 7 7 0 20
11 29 25 21 31 20 31 -29 -6z"/>
<path d="M3970 4110 c0 -5 5 -10 11 -10 5 0 7 5 4 10 -3 6 -8 10 -11 10 -2 0
-4 -4 -4 -10z"/>
<path d="M4260 3996 c0 -2 8 -10 18 -17 15 -13 16 -12 3 4 -13 16 -21 21 -21
13z"/>
<path d="M5575 3986 c-14 -10 -15 -17 -7 -33 6 -11 9 -29 6 -40 -3 -12 -1 -24
5 -27 15 -10 14 -43 -1 -49 -8 -3 -5 -6 5 -6 10 -1 15 -6 12 -11 -3 -6 3 -22
14 -36 12 -15 21 -33 21 -41 0 -7 11 -18 25 -23 14 -5 25 -15 25 -21 0 -8 -4
-8 -15 1 -8 7 -15 10 -15 6 0 -13 -60 24 -70 43 -10 19 -11 19 -82 -1 -40 -11
-87 -31 -105 -44 -19 -14 -34 -20 -38 -14 -20 33 -48 -32 -35 -80 14 -50 103
-133 160 -149 29 -9 59 -28 88 -57 23 -24 51 -44 60 -44 9 0 50 -8 89 -17 116
-29 104 -38 -112 -83 -100 -21 -182 -45 -199 -59 -6 -4 -24 -11 -41 -15 -16
-4 -43 -17 -60 -29 -16 -13 -42 -29 -57 -36 -35 -18 -102 -80 -117 -108 -6
-12 -8 -29 -5 -37 7 -19 9 -19 34 -6 11 6 21 6 24 1 8 -13 62 4 59 18 -4 16 7
14 44 -11 18 -13 31 -28 29 -35 -5 -12 15 -23 42 -23 13 0 12 4 -7 19 l-24 18
33 6 c18 4 36 7 41 7 16 0 9 -48 -8 -54 -10 -4 -13 -10 -7 -15 12 -12 64 -16
86 -7 25 11 65 -20 71 -57 4 -18 9 -47 13 -64 4 -22 2 -33 -5 -33 -6 0 -11 8
-11 19 0 10 -7 24 -15 31 -12 10 -15 9 -15 -5 0 -14 -25 -65 -46 -93 -4 -6
-40 33 -46 49 -3 8 -18 21 -33 29 -24 13 -28 13 -37 -3 -9 -16 -11 -16 -37 3
l-29 20 -5 -21 c-3 -12 0 -22 9 -26 9 -3 12 -13 8 -29 -5 -18 -2 -24 10 -24
25 0 19 -16 -19 -47 -33 -26 -34 -30 -22 -54 20 -36 20 -89 0 -89 -12 0 -14
-6 -9 -27 4 -16 10 -40 13 -56 3 -15 13 -32 23 -37 12 -6 16 -17 13 -30 -4
-17 0 -20 23 -20 22 0 25 -3 16 -12 -7 -7 -12 -20 -12 -30 0 -10 -7 -21 -16
-25 -8 -3 -20 -16 -25 -29 -12 -32 -44 -33 -35 -1 18 61 15 87 -10 87 -12 0
-14 -17 -12 -87 3 -85 4 -88 28 -91 37 -6 51 -21 44 -48 -9 -35 18 -31 34 5
17 37 68 91 87 91 22 0 33 38 24 79 -4 19 -6 39 -3 43 10 15 33 8 39 -12 4
-11 15 -20 26 -20 22 0 22 3 4 95 -5 25 -4 27 5 13 19 -30 31 -20 25 20 l-5
37 22 -45 c13 -25 27 -48 31 -51 11 -8 5 -49 -8 -52 -5 -1 -11 8 -13 21 -2 13
-9 21 -15 19 -15 -5 -13 -62 2 -81 16 -19 0 -28 -39 -24 -19 2 -26 -2 -28 -19
-4 -25 27 -46 53 -37 26 11 65 -16 66 -45 1 -14 4 -37 8 -51 l7 -25 18 34 c14
27 16 39 7 53 -9 14 -7 19 10 28 11 6 19 19 17 29 -2 10 2 18 7 19 6 0 9 -6 7
-13 -4 -20 47 -32 58 -14 11 16 64 1 66 -19 4 -36 4 -37 14 -22 6 10 3 21 -11
36 -10 11 -16 23 -13 27 12 12 46 -14 56 -44 12 -35 37 -35 54 0 15 30 32 41
67 41 33 0 33 -3 6 -41 -17 -24 -24 -27 -35 -18 -19 16 -19 -9 0 -37 20 -28
74 -21 80 10 16 75 14 92 -7 102 -12 5 -21 17 -21 27 1 11 -5 17 -18 17 -10 0
-17 4 -14 8 7 12 -22 52 -39 52 -9 0 -13 -11 -10 -36 2 -28 1 -32 -8 -20 -16
21 -58 10 -49 -12 3 -10 13 -22 21 -29 9 -6 13 -15 8 -19 -4 -4 -16 2 -27 14
-11 12 -26 19 -34 16 -15 -6 -59 31 -69 59 -3 9 -11 17 -17 17 -5 0 -10 7 -10
15 0 8 -7 15 -15 15 -19 0 -19 29 0 54 8 10 12 22 10 26 -2 4 6 5 18 4 12 -1
25 -3 30 -3 16 -2 6 -29 -13 -34 -24 -6 -25 -24 -5 -51 19 -25 32 -13 39 39 4
22 12 45 19 50 12 9 29 40 31 57 1 3 4 10 9 14 11 11 9 34 -5 49 -41 45 -41
47 -27 56 20 12 22 12 42 -11 9 -11 24 -20 32 -20 8 0 15 -7 15 -15 0 -9 9
-15 23 -15 12 0 30 -9 40 -20 9 -11 23 -20 32 -20 8 0 19 -9 25 -20 8 -15 17
-19 35 -14 18 4 25 2 25 -9 0 -9 13 -17 33 -20 17 -2 33 -4 34 -3 1 1 -36 29
-84 61 -47 33 -98 70 -114 83 -28 23 -28 23 -9 42 11 11 26 20 33 21 6 0 2 5
-10 11 -13 6 -23 19 -23 30 0 12 -7 18 -22 18 -17 0 -19 -3 -9 -9 10 -7 11
-16 4 -37 l-10 -29 -6 28 c-4 15 -12 27 -17 27 -22 0 -8 40 20 60 l30 21 42
-33 c23 -18 49 -39 56 -45 7 -7 18 -13 23 -13 5 0 9 -9 9 -20 0 -33 27 -23 33
13 16 87 20 99 43 109 13 6 24 15 24 20 0 4 5 8 10 8 6 0 10 -9 10 -20 0 -11
4 -20 8 -20 12 0 52 87 52 113 0 16 3 18 9 8 7 -10 13 -11 30 -2 23 13 45 6
36 -10 -9 -13 9 -11 23 3 7 7 12 8 12 2 0 -6 7 -19 15 -30 13 -17 14 -6 15
103 0 107 -2 122 -16 116 -8 -3 -25 4 -38 16 -29 27 -24 59 11 72 21 8 23 12
13 24 -13 16 -31 20 -29 8 4 -27 -1 -35 -16 -23 -13 11 -15 8 -15 -19 0 -32
-13 -41 -27 -18 -7 10 -98 47 -118 47 -4 0 -2 -7 5 -15 7 -8 18 -15 24 -15 17
0 70 -57 59 -63 -4 -2 -37 -8 -73 -12 -36 -4 -117 -16 -180 -26 -63 -10 -155
-19 -203 -19 -76 0 -93 3 -115 22 -20 16 -22 19 -7 14 47 -18 123 -24 173 -14
28 6 52 14 52 17 0 7 -67 53 -93 63 -10 4 -17 15 -15 24 2 9 -3 19 -10 21 -7
3 -10 -1 -6 -10 3 -8 1 -18 -5 -22 -6 -3 -11 1 -11 9 0 21 -36 21 -44 1 -4
-12 -10 -14 -25 -5 -11 6 -22 6 -25 1 -8 -13 21 -34 38 -28 9 4 16 -2 19 -15
5 -19 2 -20 -34 -15 -21 3 -42 1 -45 -4 -9 -16 -24 -10 -17 8 5 14 1 15 -25
10 -30 -6 -43 5 -22 18 16 10 11 25 -9 25 -13 0 -20 -10 -25 -32 -8 -39 16
-67 72 -84 l37 -12 -36 -1 c-22 -1 -46 7 -62 19 -14 11 -31 20 -39 20 -15 1
-48 24 -48 35 0 4 11 4 24 1 20 -5 24 -1 29 22 3 15 12 35 19 45 12 16 17 17
41 6 21 -10 30 -10 39 -1 7 7 22 12 35 12 12 0 38 8 58 17 28 14 40 15 55 6
14 -9 19 -9 23 1 5 14 74 15 96 2 8 -5 16 -4 21 3 4 7 27 14 53 16 36 3 45 1
40 -11 -3 -8 -1 -14 5 -14 5 0 12 7 16 15 4 12 22 14 93 10 68 -4 90 -1 103
10 26 24 50 8 50 -31 0 -19 5 -34 10 -34 6 0 10 7 10 15 0 9 7 26 15 38 12 19
13 29 3 55 -25 65 18 43 74 -38 16 -24 17 -11 17 268 1 188 -3 292 -9 292 -5
0 -10 -4 -10 -10 0 -5 -6 -10 -14 -10 -16 0 -30 -20 -86 -125 -44 -83 -47
-122 -9 -132 15 -4 17 -8 8 -19 -9 -11 -15 -11 -25 -3 -10 9 -16 5 -25 -14 -9
-20 -21 -26 -63 -31 -29 -4 -65 -16 -81 -26 -36 -24 -85 -27 -85 -5 0 8 -9 15
-20 15 -11 0 -20 7 -20 15 0 24 -61 12 -92 -19 -15 -14 -36 -26 -48 -26 -26 0
-47 47 -31 72 14 23 14 49 0 46 -6 -2 -13 2 -16 9 -3 7 9 13 29 15 52 5 43 33
-22 67 -30 16 -57 37 -59 47 -2 12 2 15 13 11 25 -10 29 11 6 43 -16 23 -19
34 -11 49 12 22 6 47 -19 76 -10 12 -20 45 -23 79 -5 51 -17 75 -38 76 -3 0
-4 -13 -1 -30 5 -36 -15 -41 -24 -6 -7 30 -27 39 -49 22z m-73 -841 c0 -5 -5
-11 -11 -13 -6 -2 -11 4 -11 13 0 9 5 15 11 13 6 -2 11 -8 11 -13z m-63 -49
c-12 -26 -29 -35 -29 -16 0 11 32 51 37 46 2 -2 -2 -15 -8 -30z m-79 -27 c0
-5 -10 -9 -21 -9 -18 0 -19 2 -9 15 12 15 30 12 30 -6z m160 -48 c18 -1 21 -4
12 -13 -19 -19 -94 -26 -124 -11 -44 21 -33 32 30 28 31 -1 68 -3 82 -4z m570
-277 c0 -27 -24 -33 -34 -8 -7 19 12 47 25 38 5 -3 9 -16 9 -30z m-478 -36
c-2 -10 -8 -18 -12 -18 -15 0 -20 32 -8 53 11 21 11 21 18 2 4 -11 5 -28 2
-37z m48 28 c0 -7 2 -26 5 -42 3 -16 1 -36 -5 -44 -9 -13 -11 -13 -20 0 -11
17 -13 83 -3 93 11 11 23 8 23 -7z m93 -18 c7 -24 -3 -41 -10 -20 -7 19 -20
14 -26 -10 -3 -11 1 -37 10 -57 13 -30 17 -33 20 -16 3 11 9 25 15 30 13 13
-1 -45 -15 -63 -8 -10 -7 -16 2 -22 11 -6 10 -13 -5 -34 -27 -37 -34 -32 -34
23 0 27 -7 67 -15 90 -15 44 -5 81 22 81 7 0 13 5 13 10 0 19 18 10 23 -12z
m122 -60 c-2 -23 -35 -40 -35 -19 0 6 5 11 11 11 6 0 9 7 5 15 -3 9 0 15 8 15
7 0 12 -10 11 -22z m-198 -90 c-3 -7 -5 -2 -5 12 0 14 2 19 5 13 2 -7 2 -19 0
-25z m-117 -10 c0 -18 -2 -20 -9 -8 -6 8 -7 18 -5 22 9 14 14 9 14 -14z m278
-29 c2 -9 -5 -19 -15 -22 -10 -4 -26 -12 -35 -19 -28 -20 -32 -1 -7 31 25 32
52 36 57 10z m-416 -53 c26 -1 34 -6 36 -25 2 -13 -2 -27 -10 -32 -7 -5 -13
-20 -13 -33 0 -14 -4 -25 -10 -23 -5 1 -10 11 -10 22 0 27 -13 45 -32 45 -23
0 -40 29 -35 57 4 22 6 23 23 7 10 -9 33 -17 51 -18z m238 -22 c0 -8 -4 -14
-10 -14 -5 0 -10 9 -10 21 0 11 5 17 10 14 6 -3 10 -13 10 -21z m-36 -173 c-4
-18 -10 -29 -14 -24 -11 11 0 77 11 66 5 -5 6 -24 3 -42z m-4 -60 c0 -6 -4
-13 -10 -16 -5 -3 -10 1 -10 9 0 9 5 16 10 16 6 0 10 -4 10 -9z"/>
<path d="M5720 3929 c12 -39 17 -46 31 -32 8 8 6 18 -6 37 -23 35 -36 33 -25
-5z"/>
<path d="M4340 3866 c0 -2 8 -10 18 -17 15 -13 16 -12 3 4 -13 16 -21 21 -21
13z"/>
<path d="M4210 3830 c0 -5 5 -10 10 -10 6 0 10 5 10 10 0 6 -4 10 -10 10 -5 0
-10 -4 -10 -10z"/>
<path d="M2362 3752 c-6 -4 -13 -19 -17 -33 -5 -20 -2 -28 12 -32 10 -3 42
-16 71 -28 46 -20 54 -21 62 -9 13 20 13 73 0 65 -5 -3 -10 2 -10 13 0 15 -7
18 -32 17 -18 -1 -42 1 -54 5 -11 5 -26 5 -32 2z"/>
<path d="M2653 3726 c4 -10 7 -24 7 -32 0 -9 4 -13 9 -10 11 7 3 44 -12 53 -7
4 -8 0 -4 -11z"/>
<path d="M5995 3670 c3 -5 8 -10 11 -10 2 0 4 5 4 10 0 6 -5 10 -11 10 -5 0
-7 -4 -4 -10z"/>
<path d="M6034 3638 c3 -13 6 -27 6 -31 0 -5 4 -6 9 -3 5 3 14 -1 21 -9 16
-19 40 -19 40 0 0 9 -11 20 -25 25 -14 5 -25 14 -25 19 0 5 -7 12 -16 15 -13
5 -15 2 -10 -16z"/>
<path d="M4391 3404 c0 -11 3 -14 6 -6 3 7 2 16 -1 19 -3 4 -6 -2 -5 -13z"/>
<path d="M4510 3201 c0 -5 5 -13 10 -16 6 -3 10 -2 10 4 0 5 -4 13 -10 16 -5
3 -10 2 -10 -4z"/>
<path d="M5810 3175 c0 -8 42 -44 53 -45 4 0 7 9 7 21 0 14 -6 19 -17 17 -10
-1 -24 1 -30 5 -7 5 -13 5 -13 2z"/>
<path d="M5883 3144 c-3 -8 -1 -20 4 -25 18 -18 113 -38 136 -29 20 8 19 9 -9
9 -37 1 -93 27 -101 47 -7 19 -22 18 -30 -2z"/>
<path d="M6060 3155 c0 -7 72 -36 78 -31 7 8 -9 27 -18 21 -5 -3 -11 -1 -15 5
-6 10 -45 14 -45 5z"/>
<path d="M4654 3047 c-3 -9 -11 -14 -17 -10 -7 4 -8 0 -4 -11 4 -10 7 -22 7
-27 0 -19 21 -8 32 16 9 19 9 28 0 37 -8 8 -13 7 -18 -5z"/>
<path d="M4608 3034 c-5 -4 -8 -16 -8 -28 0 -14 3 -17 11 -9 6 6 9 19 7 28 -1
9 -6 13 -10 9z"/>
<path d="M4700 3030 c0 -5 5 -10 10 -10 6 0 10 5 10 10 0 6 -4 10 -10 10 -5 0
-10 -4 -10 -10z"/>
<path d="M4697 2983 c-12 -11 -8 -23 7 -23 8 0 16 7 20 15 5 15 -14 21 -27 8z"/>
<path d="M4797 2963 c-12 -12 -7 -21 16 -27 22 -6 22 -7 3 -21 -19 -15 -19
-15 2 -15 16 0 22 6 22 23 0 33 -26 57 -43 40z"/>
<path d="M5124 2936 c-5 -13 -9 -14 -20 -5 -9 7 -14 8 -14 1 0 -11 -13 -10
-43 3 -26 11 -45 -10 -31 -33 15 -23 52 -28 60 -8 3 9 13 16 21 16 8 0 12 -4
8 -9 -10 -17 12 -21 25 -6 11 13 14 13 26 -2 7 -10 14 -26 14 -35 0 -24 27
-23 35 2 8 24 -2 43 -17 34 -7 -5 -9 2 -6 20 4 17 1 26 -8 26 -7 0 -19 3 -28
6 -10 4 -18 0 -22 -10z"/>
<path d="M4650 2930 c0 -5 5 -10 10 -10 6 0 10 5 10 10 0 6 -4 10 -10 10 -5 0
-10 -4 -10 -10z"/>
<path d="M4954 2919 c-3 -6 -1 -16 5 -22 8 -8 11 -5 11 11 0 24 -5 28 -16 11z"/>
<path d="M4700 2910 c0 -5 5 -10 10 -10 6 0 10 5 10 10 0 6 -4 10 -10 10 -5 0
-10 -4 -10 -10z"/>
<path d="M4895 2910 c3 -5 8 -10 11 -10 2 0 4 5 4 10 0 6 -5 10 -11 10 -5 0
-7 -4 -4 -10z"/>
<path d="M4645 2880 c-3 -6 1 -7 9 -4 18 7 21 14 7 14 -6 0 -13 -4 -16 -10z"/>
<path d="M5290 2852 c0 -25 -4 -32 -20 -32 -21 0 -27 -14 -11 -24 28 -18 66
53 41 78 -7 7 -10 0 -10 -22z"/>
<path d="M5497 2857 c-3 -8 -2 -19 3 -26 5 -10 9 -8 14 4 3 9 6 21 6 26 0 14
-17 11 -23 -4z"/>
<path d="M4980 2840 c0 -13 7 -20 20 -20 13 0 20 7 20 20 0 13 -7 20 -20 20
-13 0 -20 -7 -20 -20z"/>
<path d="M4574 2836 c-3 -9 -12 -16 -19 -16 -15 0 -26 -48 -13 -56 5 -3 6 -15
3 -27 -5 -16 -4 -18 3 -8 6 8 8 30 6 50 -3 28 -2 32 5 16 5 -11 10 -31 10 -44
1 -18 4 -21 14 -12 9 7 13 28 11 57 -3 51 -10 66 -20 40z"/>
<path d="M5224 2815 c0 -14 6 -25 12 -25 7 0 9 10 6 25 -6 32 -20 32 -18 0z"/>
<path d="M5135 2760 c-3 -5 1 -10 10 -10 9 0 13 5 10 10 -3 6 -8 10 -10 10 -2
0 -7 -4 -10 -10z"/>
<path d="M4606 2723 c-4 -21 -10 -60 -15 -88 -4 -27 -18 -81 -31 -119 -24 -71
-21 -97 13 -104 20 -4 42 65 58 178 6 47 17 90 23 95 33 26 21 75 -18 75 -20
0 -25 -7 -30 -37z"/>
<path d="M4534 2693 c-15 -27 -7 -52 16 -46 25 7 37 43 19 54 -19 12 -23 11
-35 -8z"/>
<path d="M5242 2659 c2 -6 8 -10 13 -10 5 0 11 4 13 10 2 6 -4 11 -13 11 -9 0
-15 -5 -13 -11z"/>
<path d="M5994 2614 c3 -9 6 -18 6 -20 0 -13 37 -1 48 16 11 19 10 20 -24 20
-29 0 -35 -3 -30 -16z"/>
<path d="M4710 2573 c0 -5 4 -25 9 -45 7 -29 6 -38 -4 -38 -19 0 -27 -30 -10
-36 8 -4 15 -13 15 -21 0 -11 3 -13 13 -5 16 13 15 124 -1 130 -7 2 -10 8 -6
13 3 5 0 9 -5 9 -6 0 -11 -3 -11 -7z"/>
<path d="M4765 2550 c-3 -5 -1 -18 5 -29 5 -11 10 -38 10 -60 0 -47 8 -48 52
-8 29 26 33 57 7 57 -6 0 -20 11 -31 25 -21 27 -33 31 -43 15z"/>
<path d="M4460 2517 c0 -8 7 -18 16 -21 11 -4 14 -1 12 11 -4 21 -28 30 -28
10z"/>
<path d="M4994 2503 c-12 -16 -29 -50 -39 -78 -11 -27 -33 -72 -51 -100 -36
-57 -53 -110 -32 -103 7 3 20 23 28 46 9 23 21 47 28 54 7 7 12 20 12 30 0 10
4 18 10 18 9 0 36 45 72 123 21 45 3 52 -28 10z"/>
<path d="M5872 2458 c5 -32 28 -35 28 -4 0 17 -5 26 -16 26 -10 0 -14 -7 -12
-22z"/>
<path d="M6184 2414 c3 -9 6 -22 6 -30 0 -8 5 -14 10 -14 6 0 10 14 10 30 0
21 -5 30 -16 30 -11 0 -14 -5 -10 -16z"/>
<path d="M6120 2411 c0 -5 5 -13 10 -16 6 -3 10 -2 10 4 0 5 -4 13 -10 16 -5
3 -10 2 -10 -4z"/>
<path d="M5840 2390 c0 -5 5 -10 10 -10 6 0 10 5 10 10 0 6 -4 10 -10 10 -5 0
-10 -4 -10 -10z"/>
<path d="M6000 2391 c0 -8 -7 -19 -16 -25 -17 -13 -9 -49 9 -43 16 5 28 60 17
71 -7 7 -10 5 -10 -3z"/>
<path d="M4113 2348 c-48 -33 -58 -48 -15 -23 42 25 66 44 61 49 -2 2 -23 -9
-46 -26z"/>
<path d="M6099 2335 c-12 -25 -25 -45 -30 -45 -5 0 -9 -4 -9 -10 0 -5 9 -10
20 -10 23 0 60 53 60 88 0 36 -18 26 -41 -23z"/>
<path d="M4720 2346 c0 -19 25 -27 39 -13 18 18 13 27 -14 27 -15 0 -25 -6
-25 -14z"/>
<path d="M2854 2321 c20 -22 36 -27 36 -13 0 5 -12 14 -27 21 -28 13 -28 13
-9 -8z"/>
<path d="M4276 2324 c-9 -8 -16 -21 -16 -29 0 -7 -6 -15 -12 -17 -9 -3 -8 -9
4 -21 9 -9 20 -17 24 -17 5 0 3 5 -4 12 -17 17 -15 28 6 28 25 0 41 18 35 41
-6 23 -17 24 -37 3z"/>
<path d="M2917 2319 c7 -7 15 -10 18 -7 3 3 -2 9 -12 12 -14 6 -15 5 -6 -5z"/>
<path d="M2955 2300 c3 -5 26 -20 50 -34 25 -14 43 -21 40 -16 -3 5 -26 20
-50 34 -25 14 -43 21 -40 16z"/>
<path d="M4029 2293 c-13 -15 -12 -15 9 -4 23 12 28 21 13 21 -5 0 -15 -7 -22
-17z"/>
<path d="M4421 2294 c-47 -21 -67 -42 -52 -57 6 -6 11 -8 11 -5 0 4 14 3 31
-2 37 -11 53 -5 74 27 13 19 14 27 4 39 -14 17 -24 17 -68 -2z"/>
<path d="M5840 2300 c0 -5 5 -10 11 -10 5 0 7 5 4 10 -3 6 -8 10 -11 10 -2 0
-4 -4 -4 -10z"/>
<path d="M6320 2302 c-45 -7 -52 -21 -28 -53 16 -22 27 -27 45 -23 19 5 23 2
24 -17 1 -13 1 -27 0 -31 -2 -12 14 -9 27 4 7 7 12 34 12 60 0 40 -3 48 -18
48 -10 0 -22 4 -27 8 -6 4 -21 6 -35 4z"/>
<path d="M4185 2290 c-3 -5 -1 -10 4 -10 6 0 11 5 11 10 0 6 -2 10 -4 10 -3 0
-8 -4 -11 -10z"/>
<path d="M4948 2269 c-5 -16 -14 -29 -19 -29 -5 0 -9 -7 -9 -15 0 -18 21 -20
38 -3 17 17 34 -8 29 -43 -2 -20 1 -25 14 -22 10 3 23 -5 33 -18 15 -22 16
-22 37 -3 33 29 49 74 35 97 -8 15 -8 21 2 24 6 3 12 12 12 21 -1 15 -2 15
-11 0 -11 -20 -39 -24 -39 -7 0 6 -9 9 -20 6 -10 -3 -24 1 -30 8 -6 7 -22 13
-36 13 -20 0 -28 -8 -36 -29z"/>
<path d="M6242 2230 c0 -14 2 -19 5 -12 2 6 2 18 0 25 -3 6 -5 1 -5 -13z"/>
<path d="M3140 2210 c8 -5 20 -10 25 -10 6 0 3 5 -5 10 -8 5 -19 10 -25 10 -5
0 -3 -5 5 -10z"/>
<path d="M5693 2172 c-9 -6 -9 -13 0 -31 12 -24 29 -30 35 -13 1 5 -4 16 -12
25 -8 8 -12 17 -9 21 9 8 1 7 -14 -2z"/>
<path d="M3411 2156 c2 -2 31 -6 64 -9 37 -3 51 -2 35 3 -25 8 -107 13 -99 6z"/>
<path d="M5660 2150 c0 -5 5 -10 11 -10 5 0 7 5 4 10 -3 6 -8 10 -11 10 -2 0
-4 -4 -4 -10z"/>
<path d="M67 2070 c-20 -11 -44 -20 -52 -20 -12 0 -15 -14 -15 -70 0 -38 3
-70 6 -70 3 0 17 9 31 20 14 11 32 20 39 20 7 0 20 9 28 21 8 12 19 18 25 15
13 -8 31 25 31 57 0 16 -8 28 -25 35 -32 15 -24 16 -68 -8z m3 -79 c0 -6 -4
-13 -10 -16 -5 -3 -10 1 -10 9 0 9 5 16 10 16 6 0 10 -4 10 -9z"/>
<path d="M5250 2076 c0 -8 4 -17 9 -20 11 -7 33 18 24 27 -12 12 -33 7 -33 -7z"/>
<path d="M4361 2018 c1 -27 36 -73 57 -76 32 -5 28 21 -9 57 -32 33 -49 39
-48 19z"/>
<path d="M290 1940 c6 -19 10 -39 10 -45 0 -23 -129 -145 -168 -159 -22 -8
-43 -12 -46 -9 -2 3 -23 -3 -45 -13 -37 -17 -41 -23 -41 -56 0 -41 17 -50 40
-23 7 8 18 15 25 15 6 0 40 12 75 26 34 14 76 27 93 29 17 2 33 8 36 14 3 5
22 13 41 18 25 7 36 15 38 32 3 18 6 20 18 10 13 -11 14 -8 9 17 -6 28 -6 28
9 10 12 -15 19 -17 27 -9 13 13 -4 38 -88 131 l-43 47 10 -35z"/>
<path d="M6341 1954 c0 -11 3 -14 6 -6 3 7 2 16 -1 19 -3 4 -6 -2 -5 -13z"/>
<path d="M2367 1770 c-8 -19 -18 -52 -22 -72 -3 -21 -10 -38 -15 -38 -5 0 -14
-9 -20 -19 -7 -15 -6 -23 4 -33 16 -17 4 -48 -19 -48 -19 0 -85 69 -85 90 0 9
-12 28 -27 43 -34 32 -100 35 -137 6 -31 -25 -53 -24 -66 2 -11 20 -28 21 -92
3 -26 -8 -24 -54 2 -54 13 0 20 -7 20 -19 0 -11 5 -23 10 -26 14 -9 12 -25 -2
-23 -7 2 -18 9 -24 17 -10 12 -15 11 -40 -5 -16 -11 -45 -27 -64 -36 l-36 -16
-17 30 c-15 27 -21 30 -49 24 -18 -3 -41 -15 -53 -25 -27 -26 -73 -43 -80 -31
-6 10 -75 -50 -75 -66 0 -17 -40 -34 -64 -28 -17 4 -28 -1 -43 -20 -11 -14
-22 -23 -25 -21 -7 8 -101 -25 -119 -41 -10 -9 -26 -14 -36 -12 -10 2 -34 -6
-53 -18 -19 -11 -46 -24 -59 -29 -15 -4 -19 -10 -12 -14 12 -8 -9 -22 -61 -41
-16 -5 -28 -16 -28 -24 0 -8 -5 -16 -12 -18 -7 -3 -12 -32 -13 -79 0 -41 -4
-80 -8 -86 -4 -6 -4 -19 -1 -28 6 -15 3 -16 -24 -10 -30 6 -32 5 -32 -24 0
-16 -5 -33 -10 -36 -6 -4 -7 -11 -3 -17 3 -7 5 -33 4 -59 -1 -35 2 -48 14 -53
9 -3 13 -11 10 -16 -4 -6 -1 -17 5 -25 6 -8 9 -23 5 -35 -5 -15 1 -28 20 -47
14 -15 24 -32 21 -39 -6 -16 136 -159 183 -185 18 -9 46 -29 61 -42 15 -14 36
-28 47 -31 12 -4 23 -19 27 -36 3 -20 14 -34 30 -40 13 -5 27 -18 31 -30 4
-12 9 -19 13 -16 10 10 9 60 -1 74 -14 18 7 37 30 27 10 -5 24 -7 31 -6 25 4
11 -28 -18 -41 -35 -15 -36 -19 -11 -42 11 -10 17 -24 14 -32 -7 -20 4 -17 27
6 20 20 20 19 64 -10 24 -17 49 -30 56 -30 10 0 10 -4 0 -15 -21 -25 4 -44 28
-22 27 25 49 21 65 -10 7 -16 19 -27 26 -25 7 1 19 -5 27 -15 12 -17 14 -17
29 5 9 12 22 22 30 22 12 0 37 60 39 95 1 5 9 11 20 13 15 3 18 0 13 -21 -9
-33 2 -40 31 -21 13 8 27 13 30 9 4 -3 1 -9 -5 -13 -11 -7 -13 -72 -1 -72 24
0 58 22 58 38 0 29 52 91 77 92 13 0 28 11 37 28 40 73 41 75 29 79 -14 5 -7
27 17 63 10 14 24 50 33 80 15 49 15 56 1 71 -10 11 -13 26 -9 38 8 25 -42 93
-65 89 -8 -2 -23 5 -33 15 -14 14 -16 21 -7 33 7 7 9 21 6 30 -4 11 4 28 23
48 86 90 101 116 101 168 0 72 -54 214 -90 236 l-20 12 20 23 c20 21 22 21 31
4 6 -9 15 -15 20 -12 5 4 23 -1 40 -9 34 -17 51 -12 83 22 22 25 15 38 -24 47
-17 4 -30 13 -30 20 0 9 6 12 15 9 8 -4 15 -1 15 5 0 6 -4 11 -10 11 -5 0 -10
7 -10 15 0 21 8 19 32 -7 l19 -23 -5 26 c-4 17 0 31 9 39 8 7 15 18 15 25 0
25 35 75 52 75 14 0 16 -9 12 -62 -2 -35 -6 -98 -9 -140 -5 -91 -14 -111 -55
-130 -29 -13 -39 -31 -21 -42 5 -3 14 1 21 9 7 8 16 15 20 15 15 0 17 -50 3
-70 -10 -15 -12 -25 -4 -33 10 -13 0 -164 -12 -183 -5 -9 -16 -128 -21 -229
-1 -22 -5 -45 -8 -51 -6 -9 -35 -185 -43 -259 -2 -16 -12 -95 -24 -175 -12
-79 -21 -155 -21 -167 l0 -23 203 0 c168 1 199 3 185 14 -13 10 -15 15 -5 25
9 9 9 16 -1 32 -8 12 -12 22 -10 23 17 10 80 26 101 26 32 0 35 10 7 28 -14 9
-26 9 -43 1 -38 -17 -110 26 -77 46 17 10 11 25 -10 25 -26 0 -109 39 -132 62
-12 12 -20 41 -24 87 -6 62 -5 70 16 91 28 28 21 58 -19 84 -29 20 -32 30 -18
53 4 7 5 24 1 38 -6 24 -4 26 17 23 19 -2 25 3 34 33 5 20 15 42 21 50 6 8 11
38 11 67 0 33 4 57 12 61 17 11 30 74 31 144 0 41 4 57 14 57 7 0 24 20 37 45
13 25 28 45 32 45 5 0 6 18 2 40 -5 32 -4 40 8 40 8 0 17 11 19 24 4 19 1 22
-15 18 -13 -3 -18 -1 -13 6 4 6 2 31 -5 54 -6 24 -13 63 -15 88 -2 25 -9 69
-15 97 -6 29 -8 62 -4 72 3 12 -1 31 -10 45 -9 14 -14 30 -10 36 3 5 2 10 -3
10 -6 0 -13 11 -16 25 -3 13 -15 29 -27 35 -11 6 -24 21 -28 33 -7 20 -9 19
-24 -13z m-519 -262 c8 -8 8 -17 1 -30 -13 -24 -29 -14 -29 18 0 26 9 31 28
12z m200 -27 c11 -6 11 -10 0 -18 -14 -11 -68 -26 -68 -19 0 2 -3 11 -6 19 -4
11 2 17 18 20 38 7 42 7 56 -2z m-44 -119 c-4 -12 -10 -22 -14 -22 -11 0 -22
49 -14 61 11 18 34 -14 28 -39z m418 1 c6 -30 -4 -63 -18 -63 -16 0 -19 36 -4
45 8 5 7 11 -1 21 -9 11 -8 14 4 14 9 0 17 -8 19 -17z m-302 -14 c0 -5 -4 -9
-10 -9 -5 0 -10 7 -10 16 0 8 5 12 10 9 6 -3 10 -10 10 -16z m-105 -58 c3 -5
-4 -13 -16 -16 -23 -8 -34 -1 -24 14 8 13 32 14 40 2z m-140 -30 c3 -5 1 -12
-5 -16 -5 -3 -10 1 -10 9 0 18 6 21 15 7z m511 -38 c-10 -10 -19 5 -10 18 6
11 8 11 12 0 2 -7 1 -15 -2 -18z m-608 5 c7 -7 12 -31 12 -54 0 -28 5 -44 15
-48 11 -4 14 -17 11 -48 -3 -23 -2 -47 2 -53 4 -5 7 -25 8 -43 1 -27 -2 -32
-15 -26 -9 4 -31 7 -50 6 -36 -1 -60 19 -61 51 0 25 -17 21 -24 -5 -4 -15 0
-27 10 -35 9 -6 13 -16 9 -22 -3 -6 1 -11 9 -11 9 0 16 -4 16 -10 0 -12 2 -12
-37 -1 -25 7 -31 6 -27 -4 6 -14 -37 -48 -73 -59 -17 -6 -23 -3 -23 9 0 8 7
18 15 21 8 3 17 14 20 25 4 10 13 19 20 19 22 0 30 29 30 112 0 42 4 74 8 71
11 -7 65 55 78 90 12 29 28 34 47 15z m65 -18 c-3 -11 -9 -20 -14 -20 -10 0
-12 24 -2 33 13 13 21 7 16 -13z m-833 -11 c0 -6 -4 -7 -10 -4 -5 3 -10 11
-10 16 0 6 5 7 10 4 6 -3 10 -11 10 -16z m1435 -49 c3 -5 1 -10 -4 -10 -6 0
-11 5 -11 10 0 6 2 10 4 10 3 0 8 -4 11 -10z m-1102 -6 c3 -4 -1 -23 -9 -43
-11 -25 -14 -52 -9 -88 5 -45 4 -52 -13 -58 -11 -3 -23 -12 -26 -20 -9 -26
-25 -17 -45 26 -20 41 -15 79 9 79 6 0 10 10 10 23 0 12 3 31 6 42 7 28 61 55
77 39z m607 -115 c0 -5 -4 -9 -10 -9 -5 0 -10 7 -10 16 0 8 5 12 10 9 6 -3 10
-10 10 -16z m-794 -65 c-3 -9 -6 -18 -6 -20 0 -3 -4 -3 -10 1 -11 7 -2 35 12
35 6 0 7 -7 4 -16z m194 -22 c0 -5 -8 -17 -19 -28 -10 -12 -22 -35 -26 -53 -5
-25 -10 -30 -19 -21 -8 10 -8 14 2 17 6 3 12 13 12 22 0 10 9 30 21 45 21 27
29 32 29 18z m480 -12 c0 -5 -2 -10 -4 -10 -3 0 -8 5 -11 10 -3 6 -1 10 4 10
6 0 11 -4 11 -10z m-802 -42 c-3 -33 -15 -43 -36 -29 -10 6 -11 13 -1 34 17
39 41 35 37 -5z m812 6 c0 -8 -4 -12 -10 -9 -5 3 -10 10 -10 16 0 5 5 9 10 9
6 0 10 -7 10 -16z m-720 -4 c0 -5 -2 -10 -4 -10 -3 0 -8 5 -11 10 -3 6 -1 10
4 10 6 0 11 -4 11 -10z m440 -71 c0 -5 -7 -9 -15 -9 -15 0 -20 12 -9 23 8 8
24 -1 24 -14z m-533 -59 c-14 -11 -28 -20 -31 -20 -3 0 -6 9 -6 20 0 16 7 20
31 20 l32 0 -26 -20z m16 -62 c-6 -31 -15 -35 -31 -15 -9 10 -7 19 4 36 20 28
34 16 27 -21z m63 5 c-11 -11 -19 6 -11 24 8 17 8 17 12 0 3 -10 2 -21 -1 -24z
m784 2 c17 -21 6 -83 -20 -107 -11 -10 -20 -27 -20 -37 0 -21 -32 -61 -49 -61
-7 0 -9 -4 -6 -10 10 -16 -11 -12 -25 5 -10 12 -9 16 5 21 10 4 15 14 12 24
-3 11 5 25 23 38 21 16 26 26 22 50 -2 16 1 33 7 36 21 14 11 26 -16 20 l-28
-7 20 21 c24 25 58 28 75 7z m-362 -13 c3 -9 -2 -13 -14 -10 -9 1 -19 9 -22
16 -3 9 2 13 14 10 9 -1 19 -9 22 -16z m-418 -37 c-8 -10 -9 -15 -1 -15 6 0
11 -7 11 -15 0 -9 8 -19 18 -22 18 -7 35 -25 53 -55 7 -14 6 -18 -7 -18 -9 0
-18 9 -21 20 -4 13 -14 20 -30 20 -17 0 -23 5 -21 18 2 11 -4 18 -18 20 -17 2
-20 8 -16 35 5 35 21 52 36 37 6 -6 4 -15 -4 -25z m876 -191 c-12 -30 -25 -13
-13 19 8 23 12 27 15 14 2 -10 1 -25 -2 -33z m-649 20 c-3 -3 -12 -4 -19 -1
-8 3 -5 6 6 6 11 1 17 -2 13 -5z m113 -37 l25 -11 -24 -4 c-13 -2 -33 1 -45 7
-12 6 -30 10 -40 8 -10 -1 -21 4 -24 12 -3 10 5 12 39 6 24 -4 55 -12 69 -18z
m214 -12 c7 -29 1 -45 -19 -45 -8 0 -13 12 -12 35 1 41 22 47 31 10z m239 -67
c-7 -39 -28 -74 -49 -82 -11 -4 -12 -2 -5 13 6 10 8 21 4 24 -7 7 38 77 49 77
4 0 5 -15 1 -32z m89 7 c3 -14 1 -25 -3 -25 -5 0 -9 4 -9 9 0 5 -3 16 -6 25
-3 9 -2 16 4 16 5 0 12 -11 14 -25z m-272 -40 c0 -8 -7 -15 -15 -15 -16 0 -20
12 -8 23 11 12 23 8 23 -8z m290 -30 c0 -8 -4 -15 -10 -15 -5 0 -10 7 -10 15
0 8 5 15 10 15 6 0 10 -7 10 -15z m-290 -100 c0 -8 -7 -15 -15 -15 -7 0 -19
-8 -24 -17 -10 -17 -10 -17 -11 1 0 17 25 45 43 46 4 0 7 -7 7 -15z"/>
<path d="M1254 1006 c-8 -20 2 -46 16 -46 19 0 22 29 6 45 -15 15 -17 15 -22
1z"/>
<path d="M2230 1701 c0 -5 5 -13 10 -16 6 -3 10 -2 10 4 0 5 -4 13 -10 16 -5
3 -10 2 -10 -4z"/>
<path d="M6355 1699 c-22 -5 -70 -6 -107 -3 -78 7 -205 -12 -231 -34 -14 -12
-22 -13 -42 -4 -19 9 -50 9 -123 1 -53 -6 -103 -13 -110 -15 -24 -7 -5 -92 30
-136 17 -22 28 -45 24 -54 -3 -8 1 -28 9 -44 19 -37 19 -50 0 -50 -9 0 -20
-12 -25 -26 -9 -22 -6 -29 22 -55 34 -30 74 -37 108 -19 25 13 36 -5 21 -34
-10 -18 -8 -29 13 -66 14 -25 26 -39 26 -32 0 14 39 32 57 25 6 -3 13 -14 15
-26 2 -15 14 -26 38 -33 23 -8 37 -20 43 -38 8 -25 21 -30 60 -27 19 3 22 -15
7 -55 -6 -15 -8 -35 -5 -43 6 -14 8 -14 20 3 8 10 12 22 10 27 -3 4 7 17 21
28 l26 20 -21 30 c-25 34 -27 79 -6 107 14 18 14 18 15 -4 0 -13 4 -21 9 -18
4 3 6 -6 3 -19 -2 -14 1 -32 8 -39 6 -8 10 -24 8 -35 -2 -11 5 -26 14 -33 12
-9 16 -20 12 -36 -7 -23 -28 -26 -30 -4 -1 7 -2 17 -3 23 -2 18 -26 3 -27 -17
0 -10 -4 -32 -8 -47 -11 -36 -1 -45 24 -22 19 17 22 17 36 3 15 -15 14 -17 -5
-27 -11 -7 -21 -18 -21 -25 0 -17 27 -29 36 -15 3 6 24 7 50 3 l44 -6 0 76 c0
74 -1 76 -25 76 -14 0 -25 4 -25 10 0 5 11 12 25 16 l25 6 0 349 c0 192 -1
348 -2 348 -2 -1 -21 -5 -43 -10z m-588 -101 c-3 -8 -6 -5 -6 6 -1 11 2 17 5
13 3 -3 4 -12 1 -19z m80 -262 c4 -7 18 -18 31 -25 12 -6 22 -16 22 -22 0 -14
-43 0 -53 17 -4 7 -14 11 -22 8 -17 -7 -18 -3 -9 20 8 20 20 21 31 2z"/>
<path d="M1774 1605 c3 -8 0 -16 -7 -18 -7 -2 -9 -7 -5 -11 7 -9 48 11 48 23
0 5 -9 11 -21 14 -15 4 -19 2 -15 -8z"/>
<path d="M907 1103 c-4 -3 -7 -17 -7 -30 0 -33 24 -24 28 10 3 26 -7 35 -21
20z"/>
<path d="M2670 998 c0 -18 18 -34 28 -24 3 4 -2 14 -11 23 -16 16 -17 16 -17
1z"/>
<path d="M2195 820 c-3 -5 -2 -10 4 -10 5 0 13 5 16 10 3 6 2 10 -4 10 -5 0
-13 -4 -16 -10z"/>
<path d="M3930 770 c0 -5 -17 -18 -37 -29 -52 -26 -113 -113 -113 -161 0 -11
-4 -20 -10 -20 -5 0 -10 -8 -10 -17 0 -10 -7 -31 -16 -48 -31 -56 -21 -348 14
-447 l17 -48 152 0 c150 0 177 6 133 30 -40 22 -17 65 28 53 19 -5 19 0 -10
94 -17 54 -31 114 -32 133 -1 19 -4 44 -8 55 -17 53 -19 95 -5 95 8 0 15 -11
15 -27 3 -87 15 -118 43 -115 4 1 10 -28 14 -63 3 -35 13 -69 21 -76 8 -6 14
-20 14 -31 0 -15 5 -18 20 -13 23 7 25 2 9 -27 -8 -14 -7 -31 2 -64 12 -40 16
-44 46 -44 18 0 33 4 33 8 0 5 7 17 16 28 15 18 15 18 9 -8 -5 -25 -2 -28 19
-28 19 0 26 7 31 32 4 18 13 43 21 55 7 12 21 51 30 86 13 53 14 75 5 116 -6
28 -8 63 -5 79 5 23 2 30 -13 34 -13 4 -19 0 -19 -11 -1 -71 -6 -111 -14 -111
-15 0 -50 -33 -50 -47 0 -15 -44 -63 -58 -63 -6 0 -12 -6 -15 -12 -2 -7 -7
-10 -11 -6 -8 7 9 41 37 74 31 37 60 126 58 178 -2 41 0 47 12 38 15 -13 27
-6 27 15 0 7 -9 13 -20 13 -11 0 -20 5 -20 10 0 6 6 10 13 10 15 -1 57 -35 57
-47 0 -5 13 -24 28 -43 35 -43 72 -132 72 -172 0 -17 -6 -42 -14 -56 -14 -26
-56 -151 -56 -165 0 -4 40 -7 88 -7 l88 0 17 47 c25 70 22 108 -12 151 -16 20
-31 49 -35 64 -6 26 -34 65 -150 209 -125 154 -212 228 -340 284 -57 25 -116
33 -116 15z m87 -232 c-3 -8 -6 -5 -6 6 -1 11 2 17 5 13 3 -3 4 -12 1 -19z
m233 -117 c0 -6 -4 -13 -10 -16 -5 -3 -10 1 -10 9 0 9 5 16 10 16 6 0 10 -4
10 -9z m-50 -40 c0 -6 -4 -13 -10 -16 -5 -3 -10 1 -10 9 0 9 5 16 10 16 6 0
10 -4 10 -9z m10 -60 c0 -6 -4 -13 -10 -16 -5 -3 -10 1 -10 9 0 9 5 16 10 16
6 0 10 -4 10 -9z m-36 -45 c-7 -17 -34 -23 -34 -6 0 9 32 31 38 26 1 -2 0 -11
-4 -20z"/>
<path d="M6230 760 c0 -5 5 -10 10 -10 6 0 10 5 10 10 0 6 -4 10 -10 10 -5 0
-10 -4 -10 -10z"/>
<path d="M2880 310 c0 -5 7 -10 15 -10 8 0 15 5 15 10 0 6 -7 10 -15 10 -8 0
-15 -4 -15 -10z"/>
<path d="M2596 235 c-14 -15 -23 -55 -11 -55 7 0 37 61 32 66 -3 3 -12 -2 -21
-11z"/>
<path d="M2670 215 c0 -8 4 -15 10 -15 5 0 7 7 4 15 -4 8 -8 15 -10 15 -2 0
-4 -7 -4 -15z"/>
<path d="M1454 185 c-18 -28 -13 -45 9 -26 8 6 22 8 32 5 13 -5 16 -2 13 17
-4 33 -33 36 -54 4z"/>
<path d="M2016 185 c-3 -8 -1 -15 4 -15 6 0 10 7 10 15 0 8 -2 15 -4 15 -2 0
-6 -7 -10 -15z"/>
<path d="M2700 157 c0 -28 9 -43 43 -75 21 -20 22 -38 2 -46 -28 -10 -17 -36
15 -36 28 0 30 3 30 36 0 25 -9 47 -27 69 -16 19 -36 44 -45 57 l-17 23 -1
-28z"/>
<path d="M1938 143 c-29 -15 -32 -21 -22 -47 8 -21 44 -21 44 0 0 8 -4 12 -10
9 -5 -3 -10 0 -10 8 0 8 8 14 17 13 10 0 19 7 21 17 4 20 -3 20 -40 0z"/>
<path d="M1796 124 c-4 -10 -1 -14 6 -12 15 5 23 28 10 28 -5 0 -13 -7 -16
-16z"/>
<path d="M2545 60 c-3 -5 -1 -10 4 -10 6 0 11 5 11 10 0 6 -2 10 -4 10 -3 0
-8 -4 -11 -10z"/>
<path d="M2596 48 c-18 -26 -21 -48 -6 -48 6 0 10 6 10 14 0 8 14 19 31 25 17
6 28 15 24 21 -11 17 -43 11 -59 -12z"/>
<path d="M2700 50 c0 -5 5 -10 10 -10 6 0 10 5 10 10 0 6 -4 10 -10 10 -5 0
-10 -4 -10 -10z"/>
<path d="M4100 10 c0 -5 5 -10 11 -10 5 0 7 5 4 10 -3 6 -8 10 -11 10 -2 0 -4
-4 -4 -10z"/>
</g>
</svg>
